Coordinates
version=1
nRows=14
nColumns=36
inDegrees=yes

Units are S.I. units (second, meters, Newtons, ...)
If the header above contains a line with 'inDegrees', this indicates whether rotational values are in degrees (yes) or radians (no).

endheader
time	pelvis_tilt	pelvis_list	pelvis_rotation	pelvis_tx	pelvis_ty	pelvis_tz	hip_flexion_r	hip_adduction_r	hip_rotation_r	knee_angle_r	knee_angle_r_beta	ankle_angle_r	subtalar_angle_r	mtp_angle_r	hip_flexion_l	hip_adduction_l	hip_rotation_l	knee_angle_l	knee_angle_l_beta	ankle_angle_l	subtalar_angle_l	mtp_angle_l	lumbar_extension	lumbar_bending	lumbar_rotation	arm_flex_r	arm_add_r	arm_rot_r	elbow_flex_r	pro_sup_r	arm_flex_l	arm_add_l	arm_rot_l	elbow_flex_l	pro_sup_l
      1.19000000	     -4.48441520	      0.74429010	     -2.08932201	     -0.48653384	      1.12532097	     -0.59952740	     22.05803534	     -7.36002405	     -7.72311516	      6.71637667	      0.11722289	    -26.34989117	      2.32520831	     -6.40724626	     20.16999458	     -7.88195053	    -14.34700174	      6.36583448	      0.11110477	    -26.38445919	      0.61572339	     -6.40724626	    -13.57043994	      4.10616498	     -1.22938683	      1.62290392	     -3.94382151	    -14.73404362	     90.54148698	    105.16899998	     -1.74946788	    -16.04933566	     -8.17667751	     85.15491266	    110.14505248
      1.20000000	     -4.20116639	      0.93012361	     -2.34754483	     -0.47443475	      1.11034103	     -0.59936248	     22.33321552	     -7.69268564	     -7.65859616	      5.98507572	      0.10445928	    -26.87819581	      2.39327807	     -6.48805529	     20.37135215	     -7.94055253	    -14.54915164	      5.77268908	      0.10075243	    -26.87499279	      1.46758113	     -6.48805529	    -13.68117198	      3.98791162	     -0.87912364	      1.22840612	     -4.03816485	    -15.08540291	     90.84968048	    103.55606129	     -2.78189235	    -16.09231904	     -8.70767007	     86.29837745	    108.36503131
      1.21000000	     -3.54543533	      1.18756420	     -2.70561061	     -0.46205460	      1.09491308	     -0.59899517	     22.30995180	     -8.09848444	     -7.52462468	      5.78265379	      0.10092635	    -27.25467767	      2.18454900	     -6.56864101	     20.23833520	     -7.96342558	    -14.76944799	      5.83012911	      0.10175495	    -27.13589059	      1.85889856	     -6.56864101	    -14.11810502	      3.75701611	     -0.47526451	      0.94448938	     -4.18605526	    -15.20346050	     90.96427340	    101.95960481	     -3.75613643	    -16.08868055	     -9.34898346	     87.36930676	    106.77210933
      1.22000000	     -2.82891334	      1.44280178	     -2.99295188	     -0.44983005	      1.07846441	     -0.59868973	     22.33671693	     -8.55240479	     -7.16053875	      6.13101009	      0.10700631	    -27.62049643	      2.35719298	     -6.60880436	     20.27655032	     -8.04636178	    -14.67199649	      6.65229902	      0.11610452	    -27.69308122	      2.48056909	     -6.60880436	    -14.57158115	      3.51509040	      0.05369581	      0.56808768	     -4.37859808	    -15.39367378	     91.04187627	    100.95312388	     -4.46731743	    -16.10879816	     -9.74663647	     88.32637836	    105.56650875
      1.23000000	     -2.09728003	      1.57581188	     -3.06667874	     -0.43800526	      1.06090831	     -0.59867131	     22.43392023	     -8.93360343	     -6.48578368	      7.06558461	      0.12331772	    -28.00833956	      1.83746819	     -6.71589850	     20.48653100	     -8.13601561	    -13.27138461	      8.02297618	      0.14002735	    -28.55693148	      1.82173066	     -6.71589850	    -15.08401853	      3.42200740	     -0.11846146	      0.81657580	     -4.47136286	    -15.18979854	     90.51617465	    102.35062948	     -5.69173540	    -15.92862862	    -11.15350723	     89.49050352	    108.62274015
      1.24000000	     -1.23096047	      1.75705545	     -3.12929837	     -0.42667284	      1.04241772	     -0.59855454	     22.64821307	     -9.39778834	     -5.76192647	      8.73439206	      0.15244390	    -27.51344887	      2.09974479	     -6.75601933	     20.86802248	     -8.24537092	    -11.93657282	     10.39791354	      0.18147783	    -28.44048776	      1.88320188	     -6.75601933	    -15.77443782	      3.21845165	      0.44141949	      0.73553456	     -4.58481910	    -15.35007744	     90.48045051	    101.14484428	     -5.68587443	    -15.94735465	    -11.29726914	     90.38519184	    107.22971460
      1.25000000	     -0.06995404	      1.88589563	     -3.23100345	     -0.41514031	      1.02331450	     -0.59856841	     22.67246423	     -9.83742931	     -4.93420037	     10.76042576	      0.18780486	    -27.76372751	      2.64653288	     -6.82376706	     20.92309769	     -8.25622158	    -10.17229750	     12.84098102	      0.22411740	    -29.74280740	      0.69176443	     -6.82376706	    -16.82800752	      3.13233971	      0.58326754	      1.10799810	     -4.58096513	    -15.30760113	     90.34535999	    101.00984370	     -6.29602204	    -15.94036960	    -12.10972143	     91.70819534	    107.53074558
      1.26000000	      1.10675509	      2.02340237	     -3.39523568	     -0.40386288	      1.00323145	     -0.59838803	     22.87814521	    -10.21922822	     -3.83992749	     13.09864074	      0.22861441	    -28.54418148	      2.52712718	     -6.90958624	     21.26304211	     -8.38299146	     -9.09174752	     15.82881116	      0.27626487	    -30.80423462	      0.83900439	     -6.90958624	    -17.90094711	      2.97388487	      0.92329940	      1.58633009	     -4.61214934	    -15.25912288	     90.01258399	    101.33467020	     -6.56505471	    -15.97296062	    -12.59071327	     92.79077888	    108.52081676
      1.27000000	      2.22779362	      2.19402211	     -3.56632059	     -0.39324987	      0.98232468	     -0.59821593	     23.38159737	    -10.60352186	     -2.55738839	     16.52775166	      0.28846368	    -25.84220897	      1.66187771	     -7.03572250	     21.83082349	     -8.40322632	     -7.79370722	     19.66365159	      0.34319546	    -29.10760443	     -0.18856816	     -7.03572250	    -19.02681560	      2.76938821	      1.45040561	      2.18322591	     -4.61983017	    -15.40899855	     89.72828425	    101.97290360	     -6.39479856	    -16.05079570	    -12.60650645	     93.57801173	    110.20178977
      1.28000000	      3.15180852	      2.42337137	     -3.75105920	     -0.38361067	      0.96027214	     -0.59802092	     24.50909073	    -10.96889280	     -1.10455345	     22.19107568	      0.38730734	    -16.22368837	     -0.34527372	     -7.17082515	     22.90218593	     -8.31370098	     -6.30586330	     25.51374385	      0.44529883	    -21.43131712	     -2.83913626	     -7.17082515	    -20.07250521	      2.51200366	      1.90630043	      3.12206909	     -4.64511423	    -15.29336537	     89.33807662	    101.98850722	     -6.04898688	    -16.16017320	    -12.49984310	     94.40521541	    110.80775798
      1.29000000	      3.96354977	      2.58522808	     -3.93037716	     -0.37482248	      0.93688965	     -0.59795611	     26.31182032	    -11.28710041	     -0.10586081	     29.86720795	      0.52128112	     -2.61856738	     -1.68349895	     -7.27217878	     24.56548827	     -8.35204843	     -5.05905577	     33.29195901	      0.58105430	     -9.77350009	     -5.01816627	     -7.27217878	    -21.11524798	      2.36420827	      2.28665806	      4.46557366	     -4.73016940	    -14.90169116	     88.79157727	    102.02022178	     -5.52410441	    -16.22618120	    -12.50418772	     95.28094215	    110.99058185
      1.30000000	      4.67154571	      2.55162464	     -4.12305995	     -0.36754002	      0.91285853	     -0.59831032	     28.69642821	    -11.36749610	      0.87762080	     37.81657927	      0.66002382	      8.04321268	     -2.42299664	     -7.32066348	     26.89843070	     -8.60311091	     -4.02528699	     41.66833857	      0.72724970	      0.77852638	     -5.68462827	     -7.32066348	    -22.35609341	      2.44952064	      2.85927453	      6.15054813	     -4.91529765	    -14.35722159	     88.58954204	     98.41217739	     -4.46582199	    -16.10950502	    -12.05455211	     96.38795840	    106.71581700
      1.31000000	      4.93195166	      2.27058509	     -4.49353633	     -0.36264131	      0.88906797	     -0.59920860	     32.21071156	    -10.92618513	      2.36730302	     45.48454071	      0.79385499	     12.78451870	     -4.85758446	     -7.34599166	     29.80483114	     -8.90841988	     -2.83690327	     49.09625493	      0.85689130	      7.25389980	     -8.26516238	     -7.34599166	    -23.61851359	      2.82436809	      3.76568884	      8.45583453	     -5.31407452	    -13.85695044	     88.10355239	     95.65324527	     -2.79723658	    -15.70042141	    -11.45893172	     97.02225121	    103.39442381
      1.32000000	      4.19953081	      2.18564587	     -5.09145945	     -0.35880689	      0.86558145	     -0.60079498	     37.41847886	    -10.57258867	      4.08100758	     53.23349673	      0.92909979	     15.80654512	     -4.48105257	     -7.36916126	     33.19526288	     -9.11524880	     -2.08598815	     55.20699257	      0.96354379	     14.25504426	     -7.85655584	     -7.36916126	    -23.98975098	      3.10726636	      4.64909448	     11.31485516	     -5.65061279	    -13.48995141	     86.16205625	    101.03913725	     -0.97952211	    -14.75193960	    -11.91522647	     95.93565303	    110.59723589
